# xmcd
#
# Track frame offsets:
#	150
#	24175
#	49682
#	62196
#	80462
#	98677
#	111595
#	120666
#	143485
#	164894
#	184823
#	203432
#	226578
#	244715
#	273672
#	293546
#	304953
#	330150
#
# Disc length: 4569 seconds
#
# Revision: 5
# Processed by: cddbd v1.5.2PL0 Copyright (c) Steve Scherf et al.
# Submitted via: EZCDAudioConverter 2.1.7.1
#
DISCID=f111d712
DTITLE=V/A - Compounds and Elements
DYEAR=2006
DGENRE=
TTITLE0=Andy Partridge and Harold Budd - Ceramic Avenue
TTITLE1=Marconi Union - Sleepless
TTITLE2=Brian Eno and Jah Wobble - Like Organza
TTITLE3=Brian Eno - Triennale
TTITLE4=Djivan Gasparyan - 7th December 1988
TTITLE5=Brian Eno - Blissed
TTITLE6=Harold Budd - Widows Charm
TTITLE7=Brian Eno - Neroli (Excerpt)
TTITLE8=Harold Budd - The White Arcades
TTITLE9=Roger Eno - Winter Music
TTITLE10=Djivan Gasparyan - Brother Hunter
TTITLE11=Jon Hassell - Out Of Adedara
TTITLE12=Vacabou - Russia In White
TTITLE13=Brian Eno - Fractal Zoom
TTITLE14=Brian Eno and John Cale - Cordoba
TTITLE15=Brian Eno and Various Artists - Fleeting Smile
TTITLE16=John Cale - Do Not Go Gentle Into That Good Night
TTITLE17=Harold Budd - Marion Brown
EXTD=
EXTT0=
EXTT1=
EXTT2=
EXTT3=
EXTT4=
EXTT5=
EXTT6=
EXTT7=
EXTT8=
EXTT9=
EXTT10=
EXTT11=
EXTT12=
EXTT13=
EXTT14=
EXTT15=
EXTT16=
EXTT17=
PLAYORDER=
